grf
version=1
nRows=15
nColumns=37
inDegrees=no
endheader
time	ground_force_1_vx	ground_force_1_vy	ground_force_1_vz	ground_force_1_px	ground_force_1_py	ground_force_1_pz	ground_moment_1_mx	ground_moment_1_my	ground_moment_1_mz	ground_force_2_vx	ground_force_2_vy	ground_force_2_vz	ground_force_2_px	ground_force_2_py	ground_force_2_pz	ground_moment_2_mx	ground_moment_2_my	ground_moment_2_mz	ground_force_3_vx	ground_force_3_vy	ground_force_3_vz	ground_force_3_px	ground_force_3_py	ground_force_3_pz	ground_moment_3_mx	ground_moment_3_my	ground_moment_3_mz	ground_force_4_vx	ground_force_4_vy	ground_force_4_vz	ground_force_4_px	ground_force_4_py	ground_force_4_pz	ground_moment_4_mx	ground_moment_4_my	ground_moment_4_mz
      4.47000000	      0.00000000	     -0.00000000	      0.00000000	      0.00000000	      0.00000000	      0.00000000	      0.00000000	      0.00000000	      0.00000000	    -10.73310184	     25.85349846	   -389.55749512	   -260.54791485	  -1064.26919848	      0.00000000	      0.00000000	      0.00000000	   9283.22171385	     12.63857049	    -25.25459782	   -397.17065430	   -272.20830755	   -710.28193069	      0.00000000	      0.00000000	     -0.00000000	  -4364.99194429	      0.00000000	     -0.00000000	      0.00000000	      0.00000000	      0.00000000	      0.00000000	      0.00000000	      0.00000000	      0.00000000
      4.48000000	      0.00000000	     -0.00000000	      0.00000000	      0.00000000	      0.00000000	      0.00000000	      0.00000000	      0.00000000	      0.00000000	    -11.10366726	     24.69688606	   -392.13943481	   -261.45767429	  -1065.59818944	      0.00000000	      0.00000000	      0.00000000	   9380.37759936	     12.18100514	    -25.68785774	   -397.84683228	   -272.90357888	   -710.61604154	      0.00000000	      0.00000000	     -0.00000000	  -4450.00998271	      0.00000000	     -0.00000000	      0.00000000	      0.00000000	      0.00000000	      0.00000000	      0.00000000	      0.00000000	      0.00000000
      4.49000000	      0.00000000	     -0.00000000	      0.00000000	      0.00000000	      0.00000000	      0.00000000	      0.00000000	      0.00000000	      0.00000000	    -10.87714672	     24.65505791	   -391.78567505	   -262.89176823	  -1063.52157274	      0.00000000	     -0.00000000	     -0.00000000	   9731.14448170	     11.32122665	    -26.71418861	   -401.33746338	   -273.92508207	   -711.24167513	      0.00000000	      0.00000000	     -0.00000000	  -4315.74739292	      0.00000000	     -0.00000000	      0.00000000	      0.00000000	      0.00000000	      0.00000000	      0.00000000	      0.00000000	      0.00000000
      4.50000000	      0.00000000	     -0.00000000	      0.00000000	      0.00000000	      0.00000000	      0.00000000	      0.00000000	      0.00000000	      0.00000000	    -11.47381115	     24.68912125	   -392.19262695	   -263.57230390	  -1063.36439763	      0.00000000	      0.00000000	      0.00000000	   9411.67104237	     11.43001129	    -27.04667001	   -404.20989990	   -274.70192110	   -711.04346401	      0.00000000	      0.00000000	     -0.00000000	  -4438.62619372	      0.00000000	     -0.00000000	      0.00000000	      0.00000000	      0.00000000	      0.00000000	      0.00000000	      0.00000000	      0.00000000
      4.51000000	      0.00000000	     -0.00000000	      0.00000000	      0.00000000	      0.00000000	      0.00000000	      0.00000000	      0.00000000	      0.00000000	    -11.45989704	     24.63456726	   -392.95605469	   -263.91588943	  -1065.67312811	      0.00000000	      0.00000000	     -0.00000000	   9481.81971049	     11.15033198	    -27.20308020	   -405.25790405	   -275.56672244	   -710.61716224	      0.00000000	      0.00000000	     -0.00000000	  -4405.76157126	      0.00000000	     -0.00000000	      0.00000000	      0.00000000	      0.00000000	      0.00000000	      0.00000000	      0.00000000	      0.00000000
      4.52000000	      0.00000000	     -0.00000000	      0.00000000	      0.00000000	      0.00000000	      0.00000000	      0.00000000	      0.00000000	      0.00000000	    -12.00269318	     24.78600311	   -391.32336426	   -264.27820637	  -1064.50216441	      0.00000000	      0.00000000	      0.00000000	   9350.40858314	     11.61362223	    -26.83631617	   -403.67254639	   -275.80634575	   -711.36066670	      0.00000000	      0.00000000	     -0.00000000	  -4486.25225097	      0.00000000	     -0.00000000	      0.00000000	      0.00000000	      0.00000000	      0.00000000	      0.00000000	      0.00000000	      0.00000000
      4.53000000	      0.00000000	     -0.00000000	      0.00000000	      0.00000000	      0.00000000	      0.00000000	      0.00000000	      0.00000000	      0.00000000	    -10.66193581	     24.50015831	   -391.02368164	   -265.38280867	  -1063.56829998	      0.00000000	      0.00000000	      0.00000000	   9499.87995882	     12.56210476	    -26.65973773	   -403.08001709	   -277.21881812	   -712.62740818	      0.00000000	      0.00000000	     -0.00000000	  -4428.18365069	      0.00000000	     -0.00000000	      0.00000000	      0.00000000	      0.00000000	      0.00000000	      0.00000000	      0.00000000	      0.00000000
      4.54000000	      0.00000000	     -0.00000000	      0.00000000	      0.00000000	      0.00000000	      0.00000000	      0.00000000	      0.00000000	      0.00000000	    -10.56714249	     23.93581200	   -390.21066284	   -265.59999681	  -1064.34238137	      0.00000000	      0.00000000	      0.00000000	   9458.47366813	     13.70997960	    -26.48316885	   -403.96844482	   -278.16286559	   -711.48774490	      0.00000000	     -0.00000000	     -0.00000000	  -4343.01277781	      0.00000000	     -0.00000000	      0.00000000	      0.00000000	      0.00000000	      0.00000000	      0.00000000	      0.00000000	      0.00000000
      4.55000000	      0.00000000	     -0.00000000	      0.00000000	      0.00000000	      0.00000000	      0.00000000	      0.00000000	      0.00000000	      0.00000000	    -10.65615559	     23.82452965	   -389.25720215	   -266.00016746	  -1063.72659422	      0.00000000	      0.00000000	      0.00000000	   9411.81604570	     14.43319283	    -26.11667378	   -401.87353516	   -278.67450044	   -711.56549649	      0.00000000	      0.00000000	     -0.00000000	  -4341.87630651	      0.00000000	     -0.00000000	      0.00000000	      0.00000000	      0.00000000	      0.00000000	      0.00000000	      0.00000000	      0.00000000
      4.56000000	      0.00000000	     -0.00000000	      0.00000000	      0.00000000	      0.00000000	      0.00000000	      0.00000000	      0.00000000	      0.00000000	    -11.34303761	     24.01594925	   -391.46591187	   -266.36477271	  -1064.11169432	      0.00000000	      0.00000000	      0.00000000	   9573.92094385	     14.94320644	    -25.76351869	   -400.52914429	   -279.44133054	   -712.24355885	      0.00000000	     -0.00000000	     -0.00000000	  -4317.90523834	      0.00000000	     -0.00000000	      0.00000000	      0.00000000	      0.00000000	      0.00000000	      0.00000000	      0.00000000	      0.00000000
      4.57000000	      0.00000000	     -0.00000000	      0.00000000	      0.00000000	      0.00000000	      0.00000000	      0.00000000	      0.00000000	      0.00000000	    -11.24052429	     24.19398499	   -391.63754272	   -267.10930378	  -1062.66122564	      0.00000000	      0.00000000	      0.00000000	   9520.19133578	     15.15997569	    -25.37459125	   -400.07583618	   -280.32613565	   -711.42905055	      0.00000000	      0.00000000	     -0.00000000	  -4307.94168839	      0.00000000	     -0.00000000	      0.00000000	      0.00000000	      0.00000000	      0.00000000	      0.00000000	      0.00000000	      0.00000000
      4.58000000	      0.00000000	     -0.00000000	      0.00000000	      0.00000000	      0.00000000	      0.00000000	      0.00000000	      0.00000000	      0.00000000	    -12.42366600	     23.91033173	   -392.53924561	   -267.58113513	  -1063.51184671	      0.00000000	      0.00000000	     -0.00000000	   9185.38879760	     15.23200194	    -25.47585048	   -397.54116821	   -280.94570707	   -712.67442833	      0.00000000	     -0.00000000	     -0.00000000	  -4498.96218539	      0.00000000	     -0.00000000	      0.00000000	      0.00000000	      0.00000000	      0.00000000	      0.00000000	      0.00000000	      0.00000000
      4.59000000	      0.00000000	     -0.00000000	      0.00000000	      0.00000000	      0.00000000	      0.00000000	      0.00000000	      0.00000000	      0.00000000	    -12.18502331	     23.63264275	   -390.81463623	   -268.26479645	  -1063.07767729	      0.00000000	      0.00000000	      0.00000000	   9427.56075428	     15.70180673	    -25.13538307	   -397.37524414	   -281.60443757	   -711.45617551	      0.00000000	      0.00000000	     -0.00000000	  -4633.64501382	      0.00000000	     -0.00000000	      0.00000000	      0.00000000	      0.00000000	      0.00000000	      0.00000000	      0.00000000	      0.00000000
      4.60000000	      0.00000000	     -0.00000000	      0.00000000	      0.00000000	      0.00000000	      0.00000000	      0.00000000	      0.00000000	      0.00000000	    -12.84631348	     23.16284370	   -393.03771973	   -269.26470100	  -1063.32679155	      0.00000000	      0.00000000	      0.00000000	   9182.71766310	     15.25825276	    -25.66281834	   -394.94161987	   -282.14392633	   -712.49213988	      0.00000000	     -0.00000000	     -0.00000000	  -4559.12687039	      0.00000000	     -0.00000000	      0.00000000	      0.00000000	      0.00000000	      0.00000000	      0.00000000	      0.00000000	      0.00000000
      4.61000000	      0.00000000	     -0.00000000	      0.00000000	      0.00000000	      0.00000000	      0.00000000	      0.00000000	      0.00000000	      0.00000000	    -12.43913269	     23.54188347	   -390.26385498	   -268.81785613	  -1061.69825149	      0.00000000	      0.00000000	      0.00000000	   9336.86014054	     15.35813870	    -25.63902226	   -396.43280029	   -283.03388611	   -711.62165886	      0.00000000	      0.00000000	     -0.00000000	  -4722.55083468	      0.00000000	     -0.00000000	      0.00000000	      0.00000000	      0.00000000	      0.00000000	      0.00000000	      0.00000000	      0.00000000
